<?xml version="1.0" encoding="utf-8"?>
<!-- Generator: Adobe Illustrator 18.0.0, SVG Export Plug-In . SVG Version: 6.00 Build 0)  -->
<!DOCTYPE svg PUBLIC "-//W3C//DTD SVG 1.1//EN" "https://www.w3.org/Graphics/SVG/1.1/DTD/svg11.dtd">
<svg version="1.1" id="Calque_1" xmlns="https://www.w3.org/2000/svg" xmlns:xlink="https://www.w3.org/1999/xlink" x="0px" y="0px"
	 viewBox="0 0 600 600" enable-background="new 0 0 600 600" xml:space="preserve">
<rect fill="#FFFFFF" stroke="#000000" stroke-miterlimit="10" width="600" height="600"/>
<path fill="#0868AC" d="M130.1,95.7c-34.5,49.5-30.2,114-3.8,166.6l1.9,3.7l1.2,2.4l0.8,1.4l1.4,2.5c0.8,1.4,1.7,2.9,2.5,4.3
	l1.4,2.4c1,1.5,1.9,3,2.9,4.6l1.2,1.9c1.4,2,2.8,4.1,4.2,6.1l0.1,0.2l0.7,1c1.3,1.7,2.5,3.4,3.8,5.1l1.4,1.8
	c1.2,1.5,2.4,2.9,3.6,4.4l1.4,1.6c1.6,1.9,3.3,3.8,5,5.7l0.1,0.1l0.2,0.2c1.6,1.8,3.3,3.6,5,5.3l1.6,1.6c1.3,1.3,2.7,2.6,4,3.9
	l1.6,1.6c1.8,1.7,3.6,3.4,5.5,5l0.1,0.1l1,0.8c1.6,1.4,3.3,2.8,5,4.2l2.1,1.7c1.4,1.1,2.8,2.2,4.2,3.3l2.2,1.7
	c1.5,1.1,3.1,2.3,4.7,3.4l1.7,1.2l0.5,0.3c1.5,1,3,2,4.5,3l2,1.3c2.3,1.5,4.7,2.9,7.1,4.4l2,1.1c1.8,1,3.5,2,5.3,3l3,1.5l3.8,2
	l0.9,0.4l1.6,0.8c2,1,4,1.9,6.1,2.8l1.3,0.6c2.3,1,4.7,2,7.1,2.9l1.7,0.7c2.2,0.9,4.4,1.7,6.7,2.5l0.8,0.3c2.5,0.9,4.9,1.7,7.4,2.4
	l1.8,0.5c2.5,0.8,5.1,1.7,7.7,2.2c166.7,30.4,215.1-100.1,215.1-100.1c-40.7,53-112.8,66.9-181.2,51.4c-2.6-0.6-5.1-1.4-7.6-2.1
	l-1.9-0.6c-2.5-0.8-4.9-1.5-7.4-2.4l-1-0.4c-2.2-0.8-4.3-1.6-6.5-2.4l-1.8-0.7c-2.3-0.9-4.7-1.9-7-2.9l-1.4-0.6
	c-2-0.9-3.9-1.8-5.9-2.7l-1.7-0.8c-1.5-0.7-3-1.5-4.6-2.3l-3-1.6c-1.9-1-3.7-2-5.5-3.1l-1.8-1c-2.4-1.4-4.8-2.9-7.1-4.4l-1.9-1.3
	c-1.7-1.1-3.4-2.2-5.1-3.4l-1.6-1.1c-1.6-1.1-3.2-2.3-4.8-3.5l-2.1-1.6c-1.5-1.1-2.9-2.2-4.3-3.4l-1.9-1.5c-1.8-1.5-3.6-3-5.4-4.5
	l-0.6-0.5c-1.9-1.7-3.8-3.4-5.7-5.1l-1.6-1.5c-1.4-1.3-2.7-2.6-4.1-4l-1.6-1.6c-1.7-1.7-3.4-3.5-5-5.3l-0.2-0.3
	c-1.7-1.9-3.4-3.8-5.1-5.8l-1.3-1.6c-1.2-1.5-2.5-3-3.6-4.5l-1.3-1.7c-1.4-1.9-2.8-3.7-4.2-5.6c-38-51.8-51.6-123.2-21.3-181.9
	 M237.1,54c-24.9,35.9-23.6,83.9-4.1,121.8c3.3,6.4,6.9,12.5,11,18.4c3.7,5.4,7.9,11.7,12.8,16c1.8,2,3.7,3.9,5.6,5.8l1.5,1.5
	c1.9,1.8,3.8,3.6,5.7,5.3l0.2,0.2l0.1,0.1c2.2,1.9,4.4,3.7,6.7,5.5l1.5,1.2c2.3,1.7,4.6,3.5,7,5.1l0.2,0.2l3.2,2.1l1.5,1
	c1.7,1.1,3.4,2.2,5.2,3.2l0.7,0.4c1.5,0.9,3,1.7,4.6,2.6l1.6,0.8l3.2,1.7l0.5,0.2c2.2,1.1,4.4,2.1,6.7,3.1l1.5,0.6
	c1.8,0.8,3.6,1.5,5.5,2.2l2.3,0.9c1.7,0.6,3.3,1.2,5,1.7l2.3,0.7c2.4,0.7,4.8,1.7,7.3,2.1c128.7,21.3,158.4-77.8,158.4-77.8
	c-26.8,38.6-78.6,57-134,42.6c-2.5-0.6-4.9-1.3-7.3-2.1l-2.2-0.7c-1.7-0.5-3.4-1.1-5.1-1.8l-2.3-0.9c-1.8-0.7-3.7-1.4-5.5-2.2
	l-1.5-0.6c-2.3-1-4.5-2-6.7-3.1l-3.4-1.7l-1.9-1c-1.4-0.8-2.9-1.6-4.3-2.4l-1-0.6c-1.7-1-3.5-2.1-5.2-3.2l-1.6-1l-3.3-2.2
	c-2.4-1.6-4.7-3.3-7-5.1l-1.6-1.2c-24.2-19.1-43.4-45.3-52.5-74.9c-9.6-30.7-7.5-65.2,9.1-93.2 M327.1,22.8
	c-14.7,21.6-16.1,48.5-5.9,72.4c10.7,25.3,32.8,45.2,58.5,54.7l3.2,1.1l1.4,0.5c1.5,0.5,3,1,4.6,1.3c71,13.7,90.3-36.5,95.4-43.8
	c-16.9,24.3-45.2,30.1-80.1,21.7c-2.7-0.7-5.8-1.7-8.4-2.6c-3.4-1.2-6.7-2.6-10-4.2c-6.2-3-12.1-6.6-17.5-10.7
	C337.1,89.5,317.7,44.4,338,7.7"/>
<path fill="#131B28" d="M311.1,451.4h-19.8c-1.1,0-2.2,0.9-2.4,2l-7,32.5l-7,32.5c-0.2,1.1-1.3,2-2.4,2h-14
	c-13.9,0-12.3-9.6-9.4-22.7l0.1-0.4l0.3-1.7l0.1-0.3l0.6-3.4l0.7-3.6l0.7-3.7l3.2-15.6l3.2-15.6c0.2-1.1-0.5-2-1.6-2h-20.3
	c-1.1,0-2.2,0.9-2.4,2l-4.4,20.7l-4.4,20.7l0,0l-0.4,1.9c-5,23-3.7,44.9,23.7,45.6l0.8,0h43c1.1,0,2.2-0.9,2.4-2l9.3-43.5l9.3-43.5
	C312.9,452.3,312.2,451.4,311.1,451.4z M98.9,451.2H77.2c-1.1,0-2.2,0.9-2.4,2l-2.1,9.1l-2.1,9.1c-0.2,1.1,0.5,2,1.6,2h21.9
	c1.1,0,2.2-0.9,2.4-2l2-9.1l2-9.1C100.7,452,100,451.2,98.9,451.2z M92.6,479.5H70.7c-1.1,0-2.2,0.9-2.4,2l-3.1,13.6l-3.1,13.6
	l-0.9,3.9l-3,13.9l-3,13.9c-0.2,1.1-0.7,2.8-1.1,3.8c0,0-4.1,12.2-11,12l-0.9,0l-6-0.1h0c-1.1,0-2.2,0.8-2.5,1.9l-2.3,9.6l-2.3,9.6
	c-0.3,1.1,0.4,1.9,1.5,2c3.9,0,12.7,0.1,17.9,0.1c17.2,0,26.3-9.5,32.1-37l6.8-31.5l6.4-29.5C94.4,480.4,93.7,479.5,92.6,479.5z
	 M496.3,472.1l-0.9-3.8l-0.9-3.8l-0.5-1.9c-1.8-6.9-7-10.9-18.4-10.9l-17.7,0l-16.3,0h-18.3c-1.1,0-2.2,0.9-2.4,2l-0.8,3.8l-1,4.5
	l-0.3,1.3l-8.2,38.6l-7.8,36.7c-0.2,1.1-0.3,2.4-0.2,2.9c0.1,0.5,2.2,1,3.3,1h16.5c1.1,0,2.5-0.2,3.1-0.4c0.6-0.2,1.5-2.4,1.7-3.5
	l2.9-14.5l2.9-14.5l0,0l0.4-1.9l3.6-16.7l3.1-14.7c0.2-1.1,1.3-2,2.4-2l52,0C495.8,474.1,496.5,473.2,496.3,472.1L496.3,472.1z
	 M563.2,438.2l-4,0h-16.6c-1.1,0-2.5,0.7-3.1,1.7l-36.8,53.9c-0.6,0.9-1.3,0.8-1.6-0.3l-2.7-11.9c-0.2-1.1-1.3-2-2.4-2h-23.6
	c-1.1,0-1.8,0.9-1.5,1.9l10.6,37.1c0.3,1.1,0.3,2.8,0.1,3.9l-4.6,18c-0.3,1.1,0.4,1.9,1.5,1.9h23.4c1.1,0,2.2-0.9,2.5-1.9l4.6-18
	c0.3-1.1,1-2.7,1.7-3.5l59.7-79.3c0.7-0.9,0.3-1.6-0.8-1.6L563.2,438.2z M375.3,484.7L375.3,484.7c-0.1,1.2-1.2,2-2.3,2h-30
	c-1,0-1.6-0.7-1.4-1.6l0-0.1l0,0l0-0.1l0.1-0.5c2.9-7.6,8.7-12.6,19.7-12.6C373.7,471.9,376.1,477.9,375.3,484.7L375.3,484.7z
	 M366.5,450.1c-38.5,0-47.6,23.4-52.7,46.9c-5.1,24-4.7,46.5,35.2,46.5h4.8l1.2,0h0.3l4.8,0h0.1c10.5,0,21.1-0.1,25.3-0.2
	c1.1,0,2.2-0.9,2.4-2l1.6-7.9l0.3-1.5l1.9-9.4c0.2-1.1-0.5-2-1.6-2h-35.8c-14.2,0-18.5-3.8-16.9-14.9h57.2l0,0l0,0
	c0.9,0,1.8-0.6,2.1-1.5l0.1-0.5l0,0C405.3,471.6,402.9,450.1,366.5,450.1L366.5,450.1z M184.6,484.5l-0.5,1.9v0l-4.3,15.3l-4.3,15.3
	c-0.3,1.1-1.4,1.9-2.5,1.9H150c-17.4,0-21.6-13.6-17.4-33.6c4.2-20.5,12.5-33.2,29.6-34.5C185.5,449.2,190.2,465.6,184.6,484.5
	L184.6,484.5z M200.3,517.8c0,0,10.8-26.2,13.2-41.3c3.3-20.2-6.8-49.6-46-49.6c-38.9,0-55.8,28-62.3,58.5
	c-6.4,30.7,2,57.6,40.7,57.4l30.5-0.1l28.5-0.1c1.1,0,2.2-0.9,2.5-1.9l5-19c0.3-1.1-0.4-1.9-1.5-1.9l-4.8,0l-4.8,0
	c-0.9,0-1.5-0.6-1.4-1.4L200.3,517.8z M393,500.3c0,0.7-0.6,1.3-1.3,1.3c-0.7,0-1.3-0.6-1.3-1.3c0-0.7,0.6-1.3,1.3-1.3
	S393,499.6,393,500.3z"/>
</svg>
